<?xml version="1.0" encoding="utf-8"?>
<!-- Generator: Adobe Illustrator 25.0.1, SVG Export Plug-In . SVG Version: 6.00 Build 0)  -->
<svg version="1.1" id="Ebene_1" xmlns="http://www.w3.org/2000/svg" xmlns:xlink="http://www.w3.org/1999/xlink" x="0px" y="0px"
	 viewBox="0 0 147 83" style="enable-background:new 0 0 147 83;" xml:space="preserve">
<style type="text/css">
	.st0{fill:#808181;}
	.st1{fill:#1D1D1B;}
	.st2{fill:#FFFFFF;}
</style>
<path class="st0" d="M112.8,32.8l0.7,4.9c0.7-1.7,2-3.1,3.7-4.1c1.7-1,3.5-1.5,5.4-1.5c1.4,0,2.6,0.1,3.5,0.4c1,0.3,1.8,0.7,2.5,1.2
	c0.7,0.5,1.3,1.1,1.8,1.8c0.5,0.7,0.9,1.4,1.2,2.1c0.7-1.6,1.9-2.9,3.5-4c1.6-1.1,3.7-1.6,6-1.6c1.7,0,3.1,0.3,4.4,0.9
	c0.6,0.3,1.1,0.6,1.6,1V0H0v83h147V60.6h-3V43.9c0-1.8-0.5-3.3-1.4-4.6c-0.9-1.2-2.3-1.8-4.2-1.8c-1.1,0-2.1,0.3-2.9,0.8
	c-0.8,0.5-1.5,1.2-2,2c-0.5,0.8-0.8,1.7-1.1,2.7c-0.2,1-0.3,1.9-0.3,2.9v14.7h-6.8V43.9c0-2.1-0.5-3.7-1.4-4.8
	c-0.9-1.1-2.3-1.7-4.2-1.7c-1.1,0-2.1,0.3-2.9,0.8c-0.8,0.6-1.4,1.3-1.9,2.1c-0.5,0.8-0.9,1.8-1.1,2.8c-0.2,1-0.4,2-0.4,2.9v14.5
	h-6.8V32.8H112.8z M40.6,60.6h-7.3c0,0,0,0,0-0.1c0.4-0.8,0.7-1.7,0.7-2.7v-5.2c-0.5-0.2-1.3-0.4-2.3-0.5c-1-0.1-2.2-0.2-3.5-0.2
	c-2.3,0-4.1,0.7-5.3,2c-1.2,1.3-1.8,2.8-1.8,4.6c0,0.8,0.1,1.5,0.3,2.2h-7c-0.1-0.6-0.1-1.2-0.1-1.9c0-2,0.4-3.7,1.1-5.1
	c0.7-1.4,1.7-2.6,3-3.5c1.3-0.9,2.7-1.6,4.4-2.1c1.7-0.5,3.5-0.7,5.4-0.7c1.1,0,2.2,0.1,3.2,0.2c1,0.1,1.9,0.3,2.5,0.4v-4
	c0-2.2-0.6-3.8-1.7-4.8c-1.1-1-2.7-1.5-4.8-1.5c-1.2,0-2.7,0.1-4.3,0.4c-1.6,0.3-3,0.8-4.2,1.5l-1.4-5.4c1.7-0.8,3.4-1.3,5.3-1.6
	c1.9-0.2,3.7-0.4,5.4-0.4c4,0,7.1,0.9,9.1,2.8c2,1.8,3.1,4.4,3.1,7.6V60.6z M69.3,60.6c0-0.4,0-0.8,0-1.2V16.3h6.8v42.2
	c0,0.8,0,1.5,0.1,2.1H69.3z"/>
</svg>
